<svg width="18" height="18" viewBox="0 0 18 18" fill="none" xmlns="http://www.w3.org/2000/svg">
<path d="M3.37975 17.9418H8.9669V11.609H6.95954V9.52131H8.9669V6.91166C8.9669 5.47269 10.0925 4.30202 11.4761 4.30202H13.9853V6.38973H11.9779C11.4245 6.38973 10.9743 6.85797 10.9743 7.43359V9.52131H13.8947L13.5602 11.609H10.9743V17.9418H15.4908C16.8744 17.9418 18 16.7711 18 15.3321V2.73623C18 1.29726 16.8744 0.126587 15.4908 0.126587H3.37975C1.99616 0.126587 0.870544 1.29726 0.870544 2.73623V15.3321C0.870544 16.7711 1.99616 17.9418 3.37975 17.9418ZM1.87422 2.73623C1.87422 1.87287 2.54962 1.17044 3.37975 1.17044H15.4908C16.3209 1.17044 16.9963 1.87287 16.9963 2.73623V15.3321C16.9963 16.1955 16.3209 16.8979 15.4908 16.8979H11.9779V12.6529H14.4104L15.0795 8.47745H11.9779V7.43359H14.989V3.25816H11.4761C9.53905 3.25816 7.96322 4.89707 7.96322 6.91166V8.47745H5.95586V12.6529H7.96322V16.8979H3.37975C2.54962 16.8979 1.87422 16.1955 1.87422 15.3321V2.73623Z" fill="white"/>
</svg>
