<svg width="18" height="19" viewBox="0 0 18 19" fill="none" xmlns="http://www.w3.org/2000/svg">
<path d="M9.38157 0.345093C4.67437 0.345093 0.816895 4.39181 0.816895 9.28748C0.816895 14.1547 4.63922 18.1603 9.38157 18.1603C14.118 18.1603 17.9463 14.1607 17.9463 9.28748C17.9463 4.39181 14.0888 0.345093 9.38157 0.345093ZM10.8871 16.9598C10.4054 17.0642 9.89347 17.1164 9.38157 17.1164C8.86967 17.1164 8.35777 17.0642 7.87606 16.9598V14.5172C7.87606 13.9327 8.02661 13.7239 8.22735 13.442C8.32955 13.3205 8.39123 13.2115 8.84955 12.4922L8.0768 12.3669C6.08945 12.0642 5.30663 10.9889 4.99547 10.1538C4.594 9.03698 4.8048 7.6381 5.52749 6.75096C5.63792 6.61518 5.72823 6.38547 5.64799 6.14544C5.49731 5.66524 5.51743 4.90328 5.6178 4.61091C6.14995 4.69002 6.69714 5.08649 7.1535 5.37301C7.36377 5.50064 7.47407 5.46693 7.57496 5.4774C7.94167 5.39802 8.51368 5.20597 9.39164 5.20597C9.93359 5.20597 10.5057 5.28942 11.0678 5.45647C11.1683 5.45402 11.3298 5.54291 11.6098 5.37301C12.0868 5.07073 12.6154 4.68784 13.1453 4.61091C13.2457 4.90328 13.2658 5.66524 13.1153 6.14544C13.0349 6.38547 13.1252 6.61518 13.2358 6.75096C13.9583 7.63824 14.1691 9.03698 13.7677 10.1538C13.4565 10.9889 12.6737 12.0642 10.6863 12.3669L9.9136 12.4922C10.3873 13.2357 10.4373 13.3248 10.5359 13.442C10.7365 13.7239 10.8871 13.9327 10.8871 14.5172V16.9598ZM11.8908 16.6571V14.5172C11.8908 13.9222 11.7703 13.5256 11.6096 13.2332C13.1353 12.8053 14.2193 11.8657 14.701 10.5192C15.2129 9.09964 14.9821 7.40854 14.1289 6.23936C14.2796 5.54006 14.2796 4.42307 13.9182 3.90114C13.7576 3.67158 13.5368 3.54626 13.2558 3.54626C13.2457 3.54626 13.2457 3.54626 13.2457 3.54626C12.4675 3.59002 11.8549 3.99765 11.1982 4.41261C10.596 4.24556 9.98378 4.16211 9.37151 4.16211C8.74931 4.16211 8.12698 4.25603 7.57509 4.41261C6.88376 3.97903 6.27711 3.58894 5.47731 3.54626C5.22639 3.54626 5.00553 3.67158 4.84492 3.90114C4.4837 4.42307 4.4837 5.54006 4.63425 6.23936C3.781 7.40854 3.55021 9.10997 4.0621 10.5192C4.54382 11.8657 5.62786 12.8053 7.1535 13.2332C7.02895 13.4598 6.93041 13.7522 6.8916 14.1478C6.58344 14.2583 6.31619 14.2943 6.06762 14.2184C5.80546 14.1378 5.6012 13.9558 5.42373 13.6453C5.02513 12.9489 4.34622 12.3803 3.57321 12.4543L3.66142 13.494C4.01937 13.4599 4.37562 13.8538 4.56067 14.1785C4.86596 14.7132 5.27723 15.0639 5.78338 15.2194C6.1591 15.3345 6.50255 15.3318 6.87239 15.2497V16.6571C3.95167 15.5924 1.82057 12.6905 1.82057 9.28748C1.82057 4.96593 5.22639 1.38895 9.38157 1.38895C13.5368 1.38895 16.9426 4.96593 16.9426 9.28748C16.9426 12.6905 14.8115 15.5924 11.8908 16.6571Z" fill="white"/>
</svg>
