<svg width="18" height="19" viewBox="0 0 18 19" fill="none" xmlns="http://www.w3.org/2000/svg">
<path d="M2.6952 18.348H14.8061C16.1897 18.348 17.3153 17.1773 17.3153 15.7384V3.14248C17.3153 1.70351 16.1897 0.532837 14.8061 0.532837H2.6952C1.31163 0.532837 0.186035 1.70351 0.186035 3.14248V15.7384C0.186035 17.1773 1.31163 18.348 2.6952 18.348ZM1.1897 3.14248C1.1897 2.27912 1.86509 1.57669 2.6952 1.57669H14.8061C15.6362 1.57669 16.3116 2.27912 16.3116 3.14248V15.7384C16.3116 16.6017 15.6362 17.3041 14.8061 17.3041H2.6952C1.86509 17.3041 1.1897 16.6017 1.1897 15.7384V3.14248Z" fill="white"/>
<path d="M8.75061 14.1379C11.2409 14.1379 13.2671 12.0306 13.2671 9.44052C13.2671 6.85045 11.2409 4.74316 8.75061 4.74316C6.26027 4.74316 4.23413 6.85045 4.23413 9.44052C4.23413 12.0306 6.26027 14.1379 8.75061 14.1379ZM8.75061 5.78702C10.6876 5.78702 12.2634 7.42593 12.2634 9.44052C12.2634 11.4551 10.6876 13.094 8.75061 13.094C6.81359 13.094 5.23779 11.4551 5.23779 9.44052C5.23779 7.42593 6.81359 5.78702 8.75061 5.78702Z" fill="white"/>
<path d="M13.4838 5.53356C14.304 5.53356 14.9713 4.83951 14.9713 3.98644C14.9713 3.13338 14.304 2.43933 13.4838 2.43933C12.6636 2.43933 11.9963 3.13338 11.9963 3.98644C11.9963 4.83951 12.6636 5.53356 13.4838 5.53356ZM13.4838 3.47074C13.7572 3.47074 13.9796 3.70214 13.9796 3.98644C13.9796 4.27075 13.7572 4.50215 13.4838 4.50215C13.2104 4.50215 12.988 4.27075 12.988 3.98644C12.988 3.70214 13.2104 3.47074 13.4838 3.47074Z" fill="white"/>
</svg>
