<svg width="18" height="15" viewBox="0 0 18 15" fill="none" xmlns="http://www.w3.org/2000/svg">
<path d="M17.6308 2.26163C16.5533 2.31328 16.5768 2.30906 16.455 2.31967L17.0932 0.424277C17.0932 0.424277 15.1013 1.18637 14.5963 1.3227C13.2701 0.0829842 11.2988 0.0282088 9.88947 0.92908C8.73538 1.66698 8.11592 2.93416 8.32254 4.41527C6.07643 4.0911 4.18395 2.98377 2.68981 1.11706L2.21725 0.52676L1.86413 1.20119C1.41784 2.0534 1.26964 3.0278 1.44672 3.94485C1.51938 4.32107 1.64288 4.6799 1.81395 5.01589L1.40856 4.85252L1.36047 5.55698C1.31172 6.2726 1.54082 7.10796 1.97339 7.79136C2.09519 7.98382 2.25201 8.19517 2.45079 8.40367L2.2413 8.37024L2.49692 9.17746C2.83291 10.238 3.53078 11.0586 4.43644 11.5147C3.53196 11.9139 2.80129 12.1686 1.60028 12.5795L0.501465 12.9552L1.51638 13.5323C1.90334 13.7524 3.27071 14.4873 4.62175 14.7077C7.62493 15.1976 11.0062 14.7987 13.2825 12.6665C15.1998 10.8706 15.8289 8.316 15.6982 5.65756C15.6785 5.25511 15.7845 4.871 15.9967 4.57619C16.4218 3.9859 17.6282 2.26557 17.6308 2.26163V2.26163ZM15.1942 3.95097C14.8417 4.44041 14.6651 5.0655 14.6968 5.71084C14.8286 8.39239 14.1271 10.472 12.6115 11.8915C10.8411 13.5498 7.9855 14.2008 4.77714 13.6773C4.19611 13.5826 3.5956 13.3704 3.0986 13.1585C4.10554 12.7982 4.88313 12.477 6.13889 11.8589L7.89192 10.9959L5.95645 10.8671C5.02936 10.8054 4.2574 10.3381 3.78288 9.57937C4.03484 9.56415 4.27779 9.52174 4.51969 9.45161L6.36563 8.9169L4.50427 8.44282C3.59978 8.21243 3.08422 7.64959 2.81096 7.21791C2.63153 6.93425 2.5143 6.64366 2.44399 6.37576C2.63061 6.42782 2.8482 6.46492 3.1991 6.50108L4.92194 6.67832L3.55692 5.57085C2.57337 4.773 2.17922 3.57433 2.46817 2.42201C5.53774 5.73327 9.14181 5.4844 9.5046 5.57194C9.42475 4.76526 9.42266 4.76335 9.40175 4.68656C8.93716 2.97847 9.95533 2.11117 10.4146 1.81758C11.3738 1.20445 12.8964 1.11203 13.9511 2.12218C14.1789 2.34019 14.4869 2.42596 14.7752 2.35147C15.0339 2.2846 15.2463 2.21379 15.4542 2.13672L15.0214 3.42224L15.5739 3.42265C15.4697 3.56808 15.3446 3.74219 15.1942 3.95097Z" fill="white"/>
</svg>
