<svg width="30" height="26" viewBox="0 0 30 26" fill="none" xmlns="http://www.w3.org/2000/svg">
<path d="M19.7396 3.75745C19.0122 3.75745 18.3262 4.04362 17.8182 4.54255C17.3102 4.04362 16.6241 3.75745 15.8967 3.75745C14.383 3.75745 13.1515 4.98897 13.1515 6.50269C13.1515 7.89078 13.9347 9.30488 15.4164 10.592C16.502 11.5351 17.575 12.0815 17.6201 12.1043C17.6824 12.1358 17.7503 12.1515 17.8182 12.1515C17.8861 12.1515 17.954 12.1357 18.0163 12.1043C18.0614 12.0815 19.1344 11.5351 20.22 10.592C21.7017 9.30488 22.4849 7.89078 22.4849 6.50269C22.4849 4.98897 21.2533 3.75745 19.7396 3.75745ZM17.8182 11.2117C17.0123 10.756 14.0304 8.90656 14.0304 6.50269C14.0304 5.4736 14.8676 4.63635 15.8967 4.63635C16.523 4.63635 17.1045 4.94884 17.4521 5.47226C17.5335 5.59489 17.6709 5.6686 17.8182 5.6686C17.9654 5.6686 18.1028 5.59489 18.1843 5.47226C18.5319 4.94884 19.1133 4.63635 19.7397 4.63635C20.7688 4.63635 21.606 5.4736 21.606 6.50269C21.606 8.90656 18.624 10.756 17.8182 11.2117Z" fill="#FFBB01"/>
<path d="M26.7425 3.75745H24.3939C24.1512 3.75745 23.9545 3.9542 23.9545 4.1969C23.9545 4.43959 24.1512 4.63635 24.3939 4.63635H26.7425C26.9852 4.63635 27.1819 4.43959 27.1819 4.1969C27.1819 3.9542 26.9852 3.75745 26.7425 3.75745Z" fill="#FFBB01"/>
<path d="M25.803 8.45447H24.3939C24.1512 8.45447 23.9545 8.65123 23.9545 8.89392C23.9545 9.13662 24.1512 9.33337 24.3939 9.33337H25.803C26.0457 9.33337 26.2424 9.13662 26.2424 8.89392C26.2424 8.65123 26.0457 8.45447 25.803 8.45447Z" fill="#FFBB01"/>
<path d="M26.7425 6.10608H24.3939C24.1512 6.10608 23.9545 6.30284 23.9545 6.54553C23.9545 6.78823 24.1512 6.98499 24.3939 6.98499H26.7425C26.9852 6.98499 27.1819 6.78823 27.1819 6.54553C27.1819 6.30284 26.9852 6.10608 26.7425 6.10608Z" fill="#FFBB01"/>
<path d="M8.89406 10.7424C9.13674 10.7424 9.3335 10.5457 9.3335 10.303C9.3335 10.0603 9.13674 9.86353 8.89406 9.86353H7.95488C7.71219 9.86353 7.51544 10.0603 7.51544 10.303C7.51544 10.5457 7.71219 10.7424 7.95488 10.7424H8.89406Z" fill="#FFBB01"/>
<path d="M4.19689 10.7424H6.0757C6.31838 10.7424 6.51514 10.5457 6.51514 10.303C6.51514 10.0603 6.31838 9.86353 6.0757 9.86353H4.19689C3.9542 9.86353 3.75745 10.0603 3.75745 10.303C3.75745 10.5457 3.9542 10.7424 4.19689 10.7424Z" fill="#FFBB01"/>
<path d="M4.19691 13.0911H8.89403C9.13673 13.0911 9.3335 12.8943 9.3335 12.6516C9.3335 12.4089 9.13673 12.2122 8.89403 12.2122H4.19691C3.95421 12.2122 3.75745 12.4089 3.75745 12.6516C3.75745 12.8943 3.95421 13.0911 4.19691 13.0911Z" fill="#FFBB01"/>
<path d="M9.3335 15C9.3335 14.7573 9.13673 14.5605 8.89403 14.5605H4.19691C3.95421 14.5605 3.75745 14.7573 3.75745 15C3.75745 15.2427 3.95421 15.4395 4.19691 15.4395H8.89403C9.13673 15.4395 9.3335 15.2427 9.3335 15Z" fill="#FFBB01"/>
<path d="M7.95471 17.7878H15.4698C15.7125 17.7878 15.9092 17.5911 15.9092 17.3484C15.9092 17.1057 15.7125 16.9089 15.4698 16.9089H7.95471C7.71202 16.9089 7.51526 17.1057 7.51526 17.3484C7.51526 17.5911 7.71202 17.7878 7.95471 17.7878Z" fill="#FFBB01"/>
<path d="M4.19689 16.9089C3.9542 16.9089 3.75745 17.1057 3.75745 17.3484C3.75745 17.5911 3.9542 17.7878 4.19689 17.7878H6.0757C6.31838 17.7878 6.51514 17.5911 6.51514 17.3484C6.51514 17.1057 6.31838 16.9089 6.0757 16.9089H4.19689Z" fill="#FFBB01"/>
<path d="M25.803 10.8031H24.3939C24.1512 10.8031 23.9545 10.9999 23.9545 11.2426C23.9545 11.4852 24.1512 11.682 24.3939 11.682H25.803C26.0457 11.682 26.2424 11.4852 26.2424 11.2426C26.2424 10.9999 26.0457 10.8031 25.803 10.8031Z" fill="#FFBB01"/>
<path d="M28.1516 0H12.1818C11.1625 0 10.3333 0.829221 10.3333 1.84852V13.5909C10.3333 14.6102 11.1625 15.4394 12.1818 15.4394H22.3332L25.6299 18.7362C25.8042 18.9105 26.0357 19.0029 26.2718 19.0029C26.3891 19.0029 26.5076 18.9801 26.6207 18.9333C26.9617 18.7921 27.182 18.4623 27.182 18.0933V15.4395H28.1516C29.1709 15.4395 30.0001 14.6103 30.0001 13.591V1.84852C30.0001 0.829221 29.1709 0 28.1516 0ZM29.1212 13.591C29.1212 14.1256 28.6863 14.5606 28.1516 14.5606H26.7425C26.4998 14.5606 26.3031 14.7573 26.3031 15V18.0933C26.3031 18.1037 26.3031 18.1135 26.2844 18.1213C26.2657 18.1289 26.2588 18.122 26.2514 18.1147L22.826 14.6893C22.7436 14.6069 22.6318 14.5606 22.5152 14.5606H12.1818C11.6471 14.5606 11.2122 14.1256 11.2122 13.591V1.84852C11.2122 1.31385 11.6471 0.878908 12.1818 0.878908H28.1515C28.6862 0.878908 29.1211 1.31385 29.1211 1.84852V13.591H29.1212Z" fill="#FFBB01"/>
<path d="M19.2272 16.4393C18.9845 16.4393 18.7878 16.6361 18.7878 16.8788V19.6969C18.7878 20.2316 18.3528 20.6665 17.8182 20.6665H7.48484C7.3683 20.6665 7.2565 20.7128 7.17412 20.7953L3.74872 24.2207C3.74139 24.228 3.73436 24.235 3.71573 24.2273C3.69704 24.2196 3.69704 24.2097 3.69704 24.1993V21.1061C3.69704 20.8634 3.50028 20.6666 3.25758 20.6666H1.84846C1.31379 20.6666 0.878847 20.2317 0.878847 19.697V7.95459C0.878847 7.41992 1.31379 6.98498 1.84846 6.98498H8.89402C9.13672 6.98498 9.33348 6.78823 9.33348 6.54553C9.33348 6.30284 9.13672 6.10608 8.89402 6.10608H1.84846C0.82916 6.10608 -6.10352e-05 6.9353 -6.10352e-05 7.95459V19.6969C-6.10352e-05 20.7162 0.82916 21.5455 1.84846 21.5455H2.81807V24.1993C2.81807 24.5683 3.03838 24.898 3.37934 25.0392C3.49249 25.0861 3.61091 25.1089 3.72821 25.1089C3.96434 25.1089 4.19579 25.0165 4.37017 24.8422L7.66689 21.5455H17.8182C18.8375 21.5455 19.6667 20.7162 19.6667 19.6969V16.8788C19.6667 16.6361 19.4699 16.4393 19.2272 16.4393Z" fill="#FFBB01"/>
</svg>
