<svg width="103" height="29" viewBox="0 0 103 29" fill="none" xmlns="http://www.w3.org/2000/svg">
<path d="M16.1046 28.9586C13.2187 28.9586 10.2273 28.9316 7.2006 28.8775L6.51432 28.8684C5.08017 28.8414 3.45246 28.8143 2.03591 28.7693C1.24405 28.7422 0.592967 28.1021 0.57537 27.2906C0.557773 26.4521 1.19126 25.7668 2.00952 25.7398C2.00952 25.7398 2.00952 25.7398 2.01831 25.7398C2.31746 25.7308 2.51103 25.4152 2.39665 25.1357C1.63118 23.3054 1.23525 21.3037 1.23525 19.257C1.23525 16.0742 2.18548 13.0267 3.98037 10.439C5.52889 8.212 7.60532 6.47184 10.0073 5.37185C10.0425 5.10136 10.0953 4.8489 10.1745 4.62349C10.4472 3.82104 10.8783 2.77514 11.7406 1.87351C12.8668 0.692369 14.3625 0.09729 16.1926 0.09729C18.0315 0.09729 19.5448 0.710401 20.6798 1.90957C21.7356 3.0276 22.0876 4.29891 22.1931 4.78579C22.2283 4.97513 22.2547 5.18251 22.2723 5.42595C24.6479 6.54397 26.6891 8.27511 28.2113 10.4841C29.9886 13.0628 30.93 16.0923 30.93 19.257C30.93 21.3127 30.5341 23.3234 29.7686 25.1808C29.663 25.4422 29.839 25.7398 30.1205 25.7488C30.1293 25.7488 30.1293 25.7488 30.1381 25.7488C30.93 25.7758 31.5811 26.416 31.5987 27.2275C31.6163 28.066 30.9828 28.7512 30.1645 28.7783C28.6776 28.8234 27.0499 28.8594 25.2022 28.8955C22.1843 28.9496 19.2545 28.9766 16.483 28.9766L16.1046 28.9586Z" fill="white"/>
<path d="M11.3715 6.5531L8.92549 7.81539L7.25378 9.11374L5.38851 11.2236L4.27111 13.0719L3.51445 14.9203L2.91615 17.6432L2.84576 20.1046L3.16251 22.3227L3.81359 24.7841L5.39731 27.2636H26.9007L28.1325 24.694L29.0299 22.2055L29.3467 18.4817L28.7836 15.335L27.7981 12.8826L26.3904 10.7096L24.6835 8.91538L23.2141 7.61703L20.7418 6.69736L11.3715 6.5531Z" fill="#008BCA"/>
<path d="M29.0739 20.9342C29.1531 20.4022 29.1091 19.9424 28.9243 19.5276C28.6868 19.0047 28.2557 18.626 27.7101 18.4457C26.6631 18.1121 23.4781 16.3268 21.5072 15.1637C21.3489 15.0194 21.1993 14.8842 21.0585 14.767L21.0849 14.4514C21.3401 13.8834 21.5424 13.2793 21.692 12.6481C21.7272 12.6121 21.7624 12.576 21.7976 12.54C22.1847 12.1252 22.4663 11.5121 22.5367 10.9441C23.0998 9.89817 23.1526 8.68096 22.9942 7.80637L21.3753 6.77851C21.3753 6.77851 21.1025 6.70638 20.6978 6.59818C20.6362 6.58015 20.7946 6.79654 20.557 7.68015C20.5218 7.80637 20.5218 9.11374 20.4866 9.25801C20.4338 9.45636 20.4778 10.6826 20.4162 10.899C20.381 11.0342 20.3195 11.9178 20.2843 12.0621C20.2227 12.2965 19.8795 13.117 19.8179 13.3604C19.7563 13.5949 19.6068 14.2801 19.554 14.5235C19.51 14.7129 19.5364 15.5694 19.4836 15.7588C19.4132 16.0563 20.2931 15.7408 20.2139 16.0293C20.1611 16.2457 21.0937 16.8858 21.2785 16.985C22.8798 17.8776 23.6365 18.2112 23.5485 18.076L24.9474 18.8965C26.0384 19.4916 26.8039 19.6899 27.4814 19.9875C27.5518 20.2579 27.6134 20.7358 27.6134 21.421L27.9477 22.8546L28.282 24.0899L28.7924 23.044L29.1267 21.2768L29.0739 20.9342Z" fill="#047FA6"/>
<path d="M6.14512 27.2996H6.8402C7.21853 27.2996 8.45911 27.2455 9.01341 27.2455C9.78768 27.2455 11.5122 27.2996 11.9081 27.2996H12.744C13.1047 27.2996 14.486 27.2635 15.0051 27.2635C15.3659 27.2635 16.2369 27.2996 16.4305 27.2996H17.2663C17.4863 27.2996 18.7357 27.2816 19.0612 27.2816C19.5627 27.2816 20.6977 27.2996 20.9529 27.2996H22.5102C22.6246 27.2996 23.0557 27.2996 23.1701 27.2996H23.9004C24.1027 27.2996 24.7626 27.2996 24.9562 27.2996H25.6864C25.7392 27.2996 25.9504 27.2996 26.0032 27.2996H26.6807L27.2086 26.6414L28.238 24.5767L27.5781 21.3669L27.4989 20.0234L24.7274 18.707L22.1143 17.2374L20.4074 16.3357L19.5011 15.7767L12.7352 15.93L12.4184 16.0202L11.5298 16.5702L10.254 17.4898L8.14237 18.3103L5.54683 19.5636L5.1245 20.0324V20.6005L5.01013 21.1144L4.0247 24.5045L3.92792 24.7209L5.39726 27.2816C5.7052 27.2906 6.05714 27.2996 6.14512 27.2996Z" fill="#293F6E"/>
<path d="M24.8418 23.4496C24.8418 23.4496 24.7274 26.2356 25.8888 27.2364C26.0208 27.3536 24.0412 27.2364 24.0412 27.2364L24.1379 25.9291L24.8418 23.4496Z" fill="#203456"/>
<path d="M11.7849 8.10385L11.5386 6.8596L11.5825 5.02026L12.2512 3.71289L13.4214 2.45962L14.7236 1.88257L16.4833 1.62109L17.891 1.90962L19.026 2.49568L19.9851 3.53256L20.6713 4.65059L20.7593 6.04813L20.5658 7.69812L21.164 7.42763L21.4104 7.75222L21.516 8.71697L21.3928 9.59155L20.8473 10.5563V11.2596L20.381 11.6563L20.073 12.7112L19.4747 14.3522L18.7445 15.1817L18.3661 15.6596L17.4863 16.5702L15.9202 16.6604L14.4684 16.2276L13.5798 15.1907L12.5944 13.8743L12.0313 11.8006L11.6529 11.5391L11.3714 11.1334V10.5112L10.8611 9.25795L10.7819 8.09484L11.0722 7.49074L11.4506 7.53582L11.7849 8.10385Z" fill="#FFCDAF"/>
<path d="M21.3313 7.61698L20.6978 7.41862L20.7594 5.44404L20.3635 4.02847L19.2461 2.64897L18.0583 1.99078L16.3426 1.63013L15.0844 1.70226L14.5389 1.95472C17.2488 2.25225 19.3341 4.63257 17.4512 8.3473C17.4512 8.3473 16.8881 8.68091 16.4218 8.65386C16.4218 8.65386 16.3074 9.05959 16.6505 9.26697C16.6505 9.26697 17.2312 12.8284 15.7531 12.9096L15.0756 12.8014L14.8644 12.6301C14.8644 12.6301 15.0668 13.1981 15.3923 13.1981C15.3923 13.1981 15.6211 13.5497 16.1314 13.5678C16.2634 13.5678 15.8587 14.0096 16.0346 13.9555C16.0346 13.9555 16.8705 14.0727 16.2018 14.9292C15.9203 14.9202 15.6211 14.8571 15.3044 14.7309C15.2604 14.7128 15.2252 14.7669 15.2604 14.803C15.3835 14.9473 16.193 14.9022 15.6739 15.344C15.5155 15.4432 15.5859 15.5964 15.7355 15.5694C15.8059 15.5604 15.8675 15.5514 15.9379 15.5514C16.061 15.5333 16.2106 15.6145 16.3338 15.6235L16.7649 16.5973L17.8119 16.3358L18.1199 15.9571L19.1669 15.8579L19.51 15.4071L19.3869 14.1268L19.9324 13.0899L20.3547 11.5842L20.6098 11.467L20.9618 10.5112L21.4721 9.13173L21.3313 7.61698Z" fill="#EBBBA1"/>
<path d="M15.7178 10.0513C15.7178 10.0513 15.6563 9.79886 15.6739 9.55542C15.6739 9.55542 15.4363 9.7087 15.3131 9.9882C15.1107 9.81689 14.7324 9.60952 14.2837 9.62755C13.7646 9.64558 13.395 9.88902 13.1839 9.97919C13.1311 9.99722 13.1311 10.0784 13.1839 10.0964C13.483 10.2136 14.1517 10.448 14.8292 10.3939C14.8292 10.3939 15.0052 10.403 15.2251 10.3939C15.3219 10.4931 15.4715 10.7275 15.3923 11.1423C15.2867 11.6743 14.7852 11.7915 14.7412 12.2874L14.7236 12.3144C14.6972 12.3505 14.662 12.3866 14.618 12.4226C14.5388 12.4857 14.4509 12.5308 14.3541 12.5849C14.1693 12.6841 13.9669 12.7923 13.7998 12.9546C13.6326 13.1169 13.5182 13.3243 13.4742 13.5406C13.4302 13.757 13.4566 13.9734 13.5182 14.1718C13.5446 13.9644 13.571 13.7661 13.6414 13.5767C13.703 13.3964 13.8086 13.2341 13.9493 13.0988C14.0901 12.9636 14.2661 12.8464 14.4421 12.7202C14.53 12.657 14.618 12.5849 14.6884 12.4947C14.706 12.4767 14.7148 12.4587 14.7236 12.4406C14.7236 12.4677 14.7324 12.5038 14.7324 12.5398C14.8116 12.9906 14.9524 12.5398 14.9524 12.5398C14.9524 12.5398 14.8732 11.6923 15.7002 11.6652L15.6563 10.7726L15.7178 10.0513Z" fill="#EBBBA1"/>
<path d="M12.788 9.37552C12.744 9.39356 12.7 9.33942 12.7352 9.30333C12.9024 9.07776 13.3071 8.67173 13.9934 8.71685C14.6533 8.76196 14.6973 8.98753 15.234 9.09581C15.3836 9.12288 15.4275 9.32138 15.3132 9.41161C15.2428 9.46575 15.1108 9.54695 14.9788 9.54695C14.5301 9.54695 14.275 9.22213 13.8438 9.18604C13.5535 9.15897 13.184 9.19506 12.788 9.37552Z" fill="#EBBBA1"/>
<path d="M14.5125 12.3505C14.5125 12.3955 14.5125 12.4496 14.4949 12.4947C14.4773 12.5398 14.4509 12.5849 14.4157 12.621C14.3541 12.6931 14.2749 12.7472 14.1957 12.8013C14.0374 12.9005 13.8878 12.9816 13.7646 13.0898C13.6414 13.198 13.5358 13.3333 13.4743 13.4865C13.4039 13.6398 13.3599 13.8201 13.3247 14.0005C13.2895 13.8201 13.2895 13.6218 13.3423 13.4324C13.3951 13.2431 13.5007 13.0628 13.6502 12.9365C13.7998 12.8103 13.9758 12.7292 14.1341 12.657C14.2133 12.621 14.2925 12.5849 14.3629 12.5398C14.3981 12.5128 14.4245 12.4857 14.4509 12.4587L14.4685 12.4316C14.4773 12.4226 14.4773 12.4136 14.4861 12.4046C14.4949 12.3955 14.5037 12.3775 14.5125 12.3505Z" fill="#272A24"/>
<path d="M17.6799 12.3505C17.6887 12.3685 17.6975 12.3955 17.7063 12.4136C17.7151 12.4226 17.7151 12.4316 17.7239 12.4406L17.7415 12.4677C17.7679 12.5037 17.7943 12.5308 17.8295 12.5488C17.8999 12.5939 17.9791 12.63 18.0583 12.666C18.2166 12.7382 18.3926 12.8103 18.5422 12.9456C18.6918 13.0718 18.8061 13.2521 18.8501 13.4415C18.9029 13.6308 18.9029 13.8202 18.8677 14.0095C18.8325 13.8292 18.7885 13.6488 18.7182 13.4956C18.6478 13.3333 18.551 13.207 18.4278 13.0988C18.3046 12.9906 18.1463 12.9095 17.9967 12.8103C17.9175 12.7562 17.8383 12.7021 17.7767 12.63C17.7415 12.5939 17.7151 12.5488 17.6975 12.5037C17.6799 12.4496 17.6711 12.3955 17.6799 12.3505Z" fill="#272A24"/>
<path d="M16.149 13.3513C15.8675 13.3513 15.7091 13.207 15.6035 13.1169C15.5507 13.0718 15.5243 13.0447 15.5067 13.0447C15.1284 13.0357 14.8645 12.8644 14.7765 12.5849C14.7237 12.4316 14.8381 12.2332 14.9436 12.098C14.9524 12.08 14.97 12.08 14.9788 12.08C14.9876 12.08 15.0052 12.089 15.014 12.098C15.0228 12.107 15.0228 12.116 15.0228 12.125C15.014 12.2873 15.0228 12.4136 15.058 12.4947C15.1284 12.648 15.2868 12.7382 15.5243 12.7472C15.6475 12.7472 15.7267 12.8193 15.8059 12.8914C15.8939 12.9726 15.9907 13.0537 16.1666 13.0537C16.3338 13.0537 16.413 12.9816 16.4922 12.9185C16.5626 12.8644 16.6417 12.8013 16.7473 12.8013H16.7737C16.9673 12.8013 17.1169 12.7201 17.2312 12.5669C17.284 12.4857 17.3192 12.3595 17.328 12.1701C17.328 12.1431 17.3544 12.1341 17.372 12.1341C17.3808 12.1341 17.3984 12.1341 17.4072 12.1611C17.4864 12.3234 17.5744 12.5488 17.4952 12.7021C17.372 12.9636 17.1081 13.1169 16.7825 13.1169C16.7737 13.1169 16.7473 13.1169 16.7473 13.1169H16.7385C16.7209 13.1259 16.7033 13.1439 16.6681 13.171C16.5626 13.2251 16.413 13.3513 16.149 13.3513Z" fill="#272A24"/>
<path d="M15.5859 12.044C15.6211 11.8546 15.6387 11.6653 15.6475 11.4759C15.6475 11.2866 15.6387 11.1063 15.6299 10.9169C15.6211 10.7276 15.6035 10.5382 15.6123 10.3399C15.6211 10.1415 15.6387 9.94314 15.709 9.76282C15.7266 9.96118 15.753 10.1415 15.7794 10.3308C15.8058 10.5202 15.8322 10.7095 15.841 10.9079C15.8498 11.1063 15.8498 11.3046 15.8146 11.503C15.7794 11.6923 15.709 11.8907 15.5859 12.044Z" fill="#272A24"/>
<path d="M12.7527 9.10422C12.7088 9.12224 12.6648 9.06818 12.7 9.03214C12.8671 8.82489 13.2543 8.53655 13.9493 8.59061C14.618 8.64468 14.662 8.86093 15.2163 8.96906C15.3659 8.99609 15.4451 9.09521 15.3219 9.17631C15.2515 9.23037 15.1635 9.26642 15.0315 9.25741C14.574 9.24839 14.3541 9.01412 13.9141 8.96005C13.615 8.94203 13.1575 8.95104 12.7527 9.10422Z" fill="#272A24"/>
<path d="M12.744 14.3341V15.5964L14.3277 16.3357L13.5534 15.0193L12.744 14.3341Z" fill="#EBBBA1"/>
<path d="M11.8729 8.36527L11.4506 7.47266L10.9491 7.57184L10.7819 8.23003L10.7467 9.23986L11.4418 10.5562L11.3714 11.2685L11.9961 11.6382L11.8553 10.6284L11.8993 9.14068L11.8729 8.36527Z" fill="#EBBBA1"/>
<path d="M12.744 15.7767L13.1399 19.8251L14.8644 19.6898L14.618 18.8062L14.8116 18.4005L16.0082 16.9939L14.2397 16.2546L12.744 15.7767Z" fill="white"/>
<path d="M14.5652 2.05383C14.5652 2.05383 11.5122 3.73989 11.7849 7.24725L11.5298 6.85053L11.4506 5.81365L11.8553 4.4071L12.9023 2.90137L13.8966 2.05383H14.5652V2.05383Z" fill="white"/>
<path d="M7.36814 21.6012C7.33294 22.2143 7.62329 26.0372 7.06019 26.7225C6.97221 26.8307 6.72585 27.02 6.4795 27.2094C6.15396 27.4528 8.1424 27.3266 8.1424 27.3266L7.94004 24.9282L7.36814 21.6012Z" fill="#203456"/>
<path d="M12.5505 16.2455C12.5505 16.2455 10.8788 17.2553 10.1221 19.1036L9.89334 18.8331L10.3421 17.8323L11.0723 16.9217L12.3041 16.1733L12.5505 16.2455Z" fill="white"/>
<path d="M10.298 17.6431C10.298 17.6431 5.67005 19.6537 5.50288 20.1496C5.33571 20.6455 5.50288 20.9791 5.50288 20.9791L5.06296 20.4111L5.20373 19.9242L5.91641 19.3652L7.45613 18.5718L9.8845 17.4718L10.1748 17.4898L10.298 17.6431Z" fill="white"/>
<path d="M13.0519 9.80773L13.8174 9.55542L14.6444 9.69058L14.75 10.006L14.2837 10.051H13.6766L13.0519 9.80773Z" fill="white"/>
<path d="M15.1196 9.99756C14.9701 9.82611 14.5653 9.45615 14.0286 9.48322C13.5095 9.51931 13.1576 9.69076 12.9464 9.79002C12.8936 9.81709 12.8936 9.88928 12.9552 9.90732C13.2544 10.0156 13.9318 10.2231 14.6093 10.151L14.3806 10.2773C14.3542 10.2863 14.3718 10.3314 14.3982 10.3224C14.5565 10.3044 14.8557 10.2502 15.1108 10.1239C15.146 10.0968 15.1548 10.0337 15.1196 9.99756ZM13.5183 9.7449C13.5711 9.71783 13.6591 9.68174 13.7735 9.64564C13.7911 9.63662 13.8087 9.65467 13.7999 9.67271C13.7911 9.69978 13.7911 9.72685 13.7911 9.75392C13.7911 9.81709 13.8087 9.87123 13.8351 9.91635C13.8439 9.92537 13.8351 9.93439 13.8263 9.93439C13.7207 9.90732 13.6063 9.86221 13.5095 9.79904C13.4919 9.79904 13.4919 9.76295 13.5183 9.7449ZM14.6973 9.94342C14.6445 9.96146 14.5477 9.97951 14.4334 9.98853C14.4158 9.98853 14.407 9.97049 14.4158 9.96146C14.4597 9.8983 14.4773 9.82611 14.4773 9.7449C14.4773 9.73588 14.4773 9.71783 14.4773 9.70881C14.5565 9.75392 14.6357 9.80807 14.7149 9.88025C14.7325 9.8983 14.7237 9.93439 14.6973 9.94342Z" fill="#272A24"/>
<path d="M19.1932 9.79872L18.4365 9.55542L17.6007 9.69058L17.5039 10.006L17.9614 10.051H18.5773L19.1932 9.79872Z" fill="white"/>
<path d="M17.1872 10.1329C17.4424 10.2592 17.7327 10.3134 17.8999 10.3314C17.9263 10.3314 17.9351 10.2953 17.9175 10.2863L17.6887 10.16C18.3662 10.2322 19.0437 10.0246 19.3428 9.91636C19.3956 9.89831 19.3956 9.8171 19.3428 9.79905C19.1405 9.70882 18.7885 9.52836 18.2606 9.50129C17.7239 9.47422 17.3192 9.84417 17.1696 10.0156C17.1256 10.0427 17.1432 10.1058 17.1872 10.1329ZM18.7709 9.80808C18.6742 9.87124 18.5686 9.91636 18.4542 9.94343C18.4454 9.94343 18.4366 9.9344 18.4366 9.92538C18.463 9.88026 18.4806 9.8171 18.4806 9.76296C18.4806 9.73589 18.4806 9.70882 18.4718 9.68175C18.4718 9.66371 18.4806 9.64566 18.4982 9.65468C18.6126 9.68175 18.7006 9.72687 18.7533 9.74491C18.7885 9.75394 18.7885 9.79003 18.7709 9.80808ZM17.5744 9.88026C17.6535 9.80808 17.7327 9.74491 17.8119 9.70882C17.8119 9.71784 17.8119 9.73589 17.8119 9.74491C17.8119 9.82612 17.8295 9.89831 17.8735 9.96147C17.8823 9.9705 17.8735 9.98854 17.8559 9.98854C17.7415 9.97952 17.6447 9.96147 17.592 9.94343C17.5568 9.9344 17.548 9.89831 17.5744 9.88026Z" fill="#272A24"/>
<path d="M16.1754 14.0993C16.8616 14.0993 17.152 14.2075 17.4687 14.2075C17.7415 14.2075 18.0054 14.0633 18.0054 14.0633C18.067 14.1083 18.1814 14.0272 18.199 13.9642C18.2166 13.8921 17.9878 13.6938 17.9702 13.7929C17.9526 13.8921 17.7503 14.0182 17.6183 14.0182C17.4775 14.0182 17.064 13.6938 16.7737 13.6758C16.6417 13.6668 16.4041 13.7299 16.2721 13.7659C16.2106 13.7839 16.149 13.7839 16.0786 13.7659C15.9466 13.7299 15.709 13.6668 15.5771 13.6758C15.2867 13.6938 14.8732 14.0182 14.7324 14.0182C14.5916 14.0182 14.3981 13.8921 14.3805 13.7929C14.3629 13.6938 14.1341 13.8921 14.1517 13.9642C14.1693 14.0362 14.2925 14.1083 14.3453 14.0633C14.3453 14.0633 14.6092 14.2075 14.882 14.2075C15.1987 14.2075 15.4891 14.0993 16.1754 14.0993Z" fill="#272A24"/>
<path d="M17.3632 14.4604C17.3896 14.4333 17.3544 14.3882 17.3192 14.4062C16.9232 14.5777 16.5361 14.6318 16.2018 14.6228C15.8674 14.6318 15.4891 14.5867 15.1108 14.4243C15.0668 14.4062 15.0316 14.4604 15.0668 14.4965C15.1987 14.6408 15.4275 14.8484 15.7618 14.9567C15.7442 14.9657 15.7178 14.9657 15.7003 14.9747C15.6299 15.0018 15.5683 15.0379 15.4979 15.074C15.3395 15.1732 15.3835 15.2003 15.5331 15.1732C15.6035 15.1642 15.6651 15.1461 15.7354 15.1371C15.8674 15.1191 15.9994 15.11 16.1314 15.11C16.2634 15.11 16.3953 15.1191 16.5273 15.1371C16.6241 15.1461 16.7209 15.1642 16.8265 15.1913C16.8616 15.2003 16.8792 15.1552 16.8528 15.1371C16.7737 15.074 16.6857 15.0198 16.5889 14.9837C16.9672 14.8574 17.2312 14.6048 17.3632 14.4604Z" fill="#272A24"/>
<path d="M10.7468 20.1045L9.82296 19.9062C9.6294 19.8611 9.53262 19.6447 9.6294 19.4734L9.89335 18.9595L10.2453 19.1127L11.3187 19.5365L11.1163 19.9332L10.7468 20.1045Z" fill="#203456"/>
<path d="M15.8498 17.3726C15.4979 17.6612 15.1811 17.9857 14.926 18.3554C14.7852 18.5448 14.7588 18.7972 14.838 19.0226L15.1108 19.762L17.1168 19.7349L17.4423 19.0497C17.5567 18.8062 17.5303 18.5177 17.372 18.3103C17.0904 17.9407 16.7297 17.6431 16.3337 17.3546C16.1842 17.2554 15.9818 17.2644 15.8498 17.3726Z" fill="#BF3F4A"/>
<path d="M4.91336 21.457C4.91336 21.457 5.51163 21.9168 5.6436 23.0529C5.77557 24.1889 6.03951 22.3857 5.73158 21.7455C5.42365 21.1053 5.13331 20.9701 5.13331 20.9701L4.91336 21.457Z" fill="#203456"/>
<path d="M16.0874 17.4176C16.0874 17.4176 16.932 18.3733 16.8792 18.8873C16.8176 19.4012 16.2193 19.7528 16.2193 19.7528H17.2664L17.7503 18.7881L17.1608 18.0397C17.1608 18.0397 16.5977 17.5078 16.5713 17.4807C16.5361 17.4537 16.0962 17.2823 16.0962 17.2823V17.4176H16.0874Z" fill="#A43447"/>
<path d="M19.5364 9.10422C19.5803 9.12224 19.6243 9.06818 19.5891 9.03214C19.422 8.82489 19.0349 8.53655 18.3398 8.59061C17.6711 8.64468 17.6271 8.86093 17.0728 8.96906C16.9233 8.99609 16.8441 9.09521 16.9673 9.17631C17.0377 9.23037 17.1256 9.26642 17.2576 9.25741C17.7151 9.24839 17.9351 9.01412 18.375 8.96005C18.6741 8.94203 19.1316 8.95104 19.5364 9.10422Z" fill="#272A24"/>
<path d="M8.88144 27.1824C9.6557 27.1824 11.3802 27.2365 11.7761 27.2365H12.612C12.9727 27.2365 14.3541 27.2004 14.8732 27.2004C15.2339 27.2004 16.105 27.2365 16.2985 27.2365H17.1344C17.3543 27.2365 18.6037 27.2184 18.9293 27.2184C19.4308 27.2184 20.5658 27.2365 20.8209 27.2365H22.3782C22.4926 27.2365 22.9237 27.2365 23.0381 27.2365H23.7684C23.8476 27.2365 24.0147 27.2365 24.1907 27.2365L24.9826 21.7726L25.1058 21.0242L24.3755 20.4833L19.3692 19.8341L15.1723 19.6898L12.2424 19.8341L9.25097 20.1497L7.63206 20.7447L7.4209 21.3939L8.18636 27.1914C8.45911 27.1914 8.70547 27.1824 8.88144 27.1824Z" fill="#E0DFDC"/>
<path d="M17.3279 19.6538L19.1844 19.8251L19.3252 18.148L19.51 15.7767L18.0934 16.0112L16.3777 17.0661L17.8382 18.8333L17.3279 19.6538Z" fill="white"/>
<path d="M18.7181 19.9153C18.7181 19.9153 22.7214 20.6636 22.9414 22.6833C23.1261 24.4235 22.4311 26.3169 18.6566 27.2816C17.8031 27.498 24.1292 27.2275 24.1292 27.2275L24.9386 21.7546L24.877 20.871L23.8476 20.294L20.5394 19.9784L18.7181 19.9153Z" fill="#C3C3C3"/>
<path d="M18.8677 19.825C18.8677 19.825 8.00165 20.3569 7.42096 21.4028L7.36816 20.9881L7.68491 20.6725L8.62634 20.42L10.694 20.1496L14.0022 19.8069L17.1256 19.7709L18.8677 19.825Z" fill="white"/>
<path d="M16.281 25.2528C16.9127 25.2528 17.4248 24.8048 17.4248 24.252C17.4248 23.6993 16.9127 23.2512 16.281 23.2512C15.6493 23.2512 15.1372 23.6993 15.1372 24.252C15.1372 24.8048 15.6493 25.2528 16.281 25.2528Z" fill="#C3C3C3"/>
<path d="M21.0233 19.8069L22.1671 19.4914C22.3607 19.4463 22.4575 19.2299 22.3607 19.0586L22.0967 18.5447L21.7448 18.698L20.7594 19.1938V19.5365L21.0233 19.8069Z" fill="#203456"/>
<path d="M16.2986 25.4603C15.6035 25.4603 15.0052 24.9824 14.9084 24.3513C14.8556 24.0177 15.0052 23.7562 15.146 23.5939C15.4187 23.2603 15.8938 23.0259 16.2986 23.0259C16.7033 23.0259 17.1696 23.2603 17.4512 23.5939C17.5831 23.7562 17.7415 24.0177 17.6887 24.3513C17.5919 24.9824 16.9936 25.4603 16.2986 25.4603ZM16.2986 23.3505C15.9906 23.3505 15.7003 23.4767 15.5155 23.6931C15.3571 23.8644 15.2867 24.0808 15.3043 24.2972C15.3483 24.7751 15.7795 25.1357 16.2986 25.1357C16.8177 25.1357 17.2488 24.7751 17.2928 24.2972C17.3104 24.0808 17.24 23.8644 17.0816 23.6931C16.8969 23.4767 16.6065 23.3505 16.2986 23.3505Z" fill="#272A24"/>
<path d="M30.1209 27.0922C29.1795 27.0651 28.2381 27.0381 27.2966 27.0201C28.8188 24.7209 29.6194 22.052 29.6194 19.257C29.6194 16.3718 28.766 13.6037 27.1471 11.2595C25.5897 9.0054 23.4517 7.30131 20.953 6.30951C20.9881 5.77755 20.9793 5.3628 20.9178 5.06526C20.8562 4.76772 20.5922 3.73986 19.7476 2.84724C18.8677 1.91856 17.6799 1.44971 16.2106 1.44971C14.7501 1.44971 13.5711 1.90954 12.7088 2.81117C12.0225 3.53248 11.6706 4.39805 11.4418 5.06526C11.3363 5.38083 11.2923 5.78657 11.3275 6.28247C8.81111 7.25623 6.6555 8.96032 5.08058 11.2234C3.44407 13.5767 2.58182 16.3537 2.58182 19.257C2.58182 22.0611 3.38248 24.7299 4.90461 27.0291C4.04236 27.0471 2.93376 27.0741 2.07151 27.1012C1.86915 27.1102 1.86915 27.4168 2.07151 27.4168C3.70802 27.4709 5.60848 27.4979 7.24499 27.525C10.2365 27.5791 13.2279 27.6061 16.2194 27.6061C19.2109 27.6061 22.2023 27.5791 25.1938 27.525C26.8391 27.4979 28.4932 27.4619 30.1385 27.4078C30.3145 27.4078 30.3233 27.1012 30.1209 27.0922ZM20.8738 6.94968C20.8826 6.91361 20.9178 6.88656 20.953 6.90459C25.8273 8.92425 29.0827 13.8382 29.0827 19.257C29.0827 20.6455 28.8715 21.9889 28.4668 23.2693C28.4228 23.4135 28.2205 23.4045 28.1941 23.2602L27.7541 21.1504C27.7277 21.0332 27.7277 20.907 27.7453 20.7807C27.7893 20.5193 27.7893 20.2848 27.7102 20.1045C27.631 19.9332 27.499 19.816 27.3054 19.7619C25.7393 19.257 21.0409 16.4799 20.6978 16.2816C20.4778 16.0652 20.2579 15.8759 20.0555 15.7226C19.8004 15.5332 19.6596 15.2267 19.686 14.9111L19.7652 14.0906C20.0379 13.5316 20.2931 12.8283 20.4602 11.9718C20.4778 11.8726 20.5482 11.7824 20.6362 11.7464C20.7066 11.7103 20.7682 11.6652 20.821 11.6111C21.0585 11.3587 21.2169 10.9169 21.1993 10.6734C21.1993 10.6013 21.2169 10.5201 21.2609 10.457C21.8064 9.60048 21.78 8.4554 21.6128 7.82426C21.5337 7.54475 21.4105 7.36443 21.2433 7.30131C21.1201 7.24721 20.9881 7.24721 20.865 7.30131C20.8474 7.31033 20.8386 7.30131 20.8386 7.30131C20.8386 7.30131 20.8298 7.2923 20.8298 7.27426C20.8474 7.14803 20.8562 7.04885 20.8738 6.94968ZM20.513 19.6447L20.6538 19.7619C20.4338 19.7348 20.2051 19.7168 19.9851 19.6988C19.9411 19.6988 19.8268 19.6898 19.6772 19.6717C19.5364 19.6627 19.4396 19.5365 19.4484 19.4012C19.5452 18.0849 19.5892 17.0029 19.6156 16.3537C19.6244 16.1373 19.8707 16.0201 20.0379 16.1554C20.2227 16.3086 20.4602 16.525 20.7242 16.8045C21.4457 17.5529 21.8768 18.184 21.956 18.4185L20.5746 19.1037C20.3723 19.2119 20.3371 19.5004 20.513 19.6447ZM20.7066 7.98655C20.7242 7.94147 20.9178 7.54475 21.1113 7.6259C21.1553 7.64393 21.2257 7.74311 21.2697 7.91442C21.4105 8.44639 21.4809 9.56441 20.865 10.3939C20.8386 10.43 20.821 10.4841 20.8298 10.5292C20.8562 10.6824 20.7418 11.1513 20.557 11.3406C20.6098 10.9078 20.645 10.466 20.6538 10.0062C20.6538 9.889 20.7242 9.78081 20.8298 9.74474L20.8386 9.73572C20.9178 9.70868 20.9706 9.61851 20.953 9.52835C20.8914 9.18573 21.0321 8.77999 21.1201 8.57262C21.1377 8.52753 21.1289 8.47344 21.0849 8.44639C21.0673 8.42835 21.0409 8.42836 21.0233 8.42836C20.9969 8.42836 20.9793 8.43737 20.9618 8.4554C20.8914 8.5095 20.821 8.5636 20.7418 8.6177C20.7154 8.63573 20.6802 8.63573 20.6538 8.6177C20.6274 8.59967 20.6098 8.57262 20.6098 8.53655C20.6186 8.38327 20.6538 8.20295 20.7066 7.98655ZM11.7586 5.19149C12.0753 4.27182 12.92 1.81938 16.193 1.81938C17.5656 1.81938 18.6654 2.25216 19.4748 3.10871C20.2491 3.9292 20.4954 4.87592 20.5482 5.14641C20.6978 5.8587 20.4778 7.25623 20.3371 8.03164C20.3107 8.16688 20.2931 8.28409 20.2755 8.36524C20.2491 8.48245 20.2491 8.59967 20.2579 8.71688C20.2579 8.76196 20.2667 8.80704 20.2667 8.84311C20.3987 10.6013 20.0907 12.0349 19.8092 12.9185C19.73 13.18 19.6332 13.4414 19.5276 13.6849L19.4924 13.757C19.2725 14.2529 18.9469 14.6226 18.7182 14.848C18.7094 14.857 18.7006 14.857 18.6918 14.848C18.683 14.848 18.6742 14.839 18.6742 14.83C18.6742 14.7578 18.683 14.6767 18.683 14.5865C18.683 14.5414 18.6654 14.4964 18.6214 14.4783C18.5598 14.4513 18.4894 14.4783 18.4718 14.5414C18.3046 15.0644 17.8383 16.2636 17.2136 16.2636C16.7649 16.2636 16.6593 16.0381 16.5537 15.8127C16.4746 15.6324 16.3866 15.4521 16.1226 15.4521C15.8235 15.4521 15.7179 15.6685 15.6211 15.8759C15.5155 16.1013 15.4099 16.3086 15.0668 16.3086C15.058 16.3086 15.058 16.3086 15.0492 16.3086C14.4597 16.2996 13.967 15.0373 13.7822 14.4964C13.7646 14.4513 13.7294 14.4242 13.6766 14.4242C13.6678 14.4242 13.6591 14.4242 13.6591 14.4242C13.6063 14.4332 13.5711 14.4783 13.5711 14.5414C13.5711 14.5775 13.5711 14.6136 13.5799 14.6496C13.5799 14.6767 13.5623 14.6857 13.5535 14.6857C13.5447 14.6857 13.5271 14.6947 13.5095 14.6767C13.2543 14.4513 12.9024 14.0906 12.7 13.6668C12.3833 12.9005 12.1809 12.0349 12.0929 11.0972C12.0049 10.1505 12.0665 9.32999 12.1017 8.93327C12.1105 8.84311 12.1193 8.76196 12.1369 8.6718C12.1457 8.58163 12.1457 8.49147 12.1105 8.40131C12.1017 8.36524 12.0841 8.32016 12.0665 8.27508C11.917 7.80623 11.4506 6.10214 11.7586 5.19149ZM19.0965 17.4267L18.2254 18.5537C18.1551 18.6439 18.0231 18.6349 17.9703 18.5447C17.6711 18.0849 17.2664 17.6881 16.7737 17.3275C16.7209 17.2914 16.7385 17.2013 16.8089 17.1922C17.3808 17.1021 17.8823 16.8136 18.1726 16.4439C18.4014 16.3627 18.6566 16.2545 18.8941 16.1463C19.0613 16.0742 19.2373 16.2004 19.2373 16.3808C19.2373 16.5611 19.2021 17.0209 19.1845 17.2283C19.1581 17.3095 19.1317 17.3726 19.0965 17.4267ZM19.1581 18.2652C19.1405 18.6439 19.1053 19.1127 19.0613 19.6357C18.7094 19.6086 18.3838 19.5906 18.331 19.5816C18.0847 19.5726 17.8383 19.5635 17.592 19.5545C17.6623 19.4283 17.7327 19.3021 17.7767 19.2209C17.8119 19.1668 17.8823 19.1488 17.9351 19.2029C18.0583 19.3291 18.2606 19.3111 18.3662 19.1668L19.0261 18.2201C19.0701 18.157 19.1581 18.1931 19.1581 18.2652ZM14.3541 18.6439C14.3013 18.725 14.187 18.725 14.1254 18.6529L13.2015 17.589C13.1048 17.4717 13.0432 17.3365 13.0344 17.1832C13.008 16.8767 12.9904 16.5791 12.9728 16.3086C12.964 16.1734 13.1135 16.0832 13.2279 16.1463C13.5447 16.3357 13.967 16.5431 14.4597 16.6783C14.6973 16.8767 15.0932 17.066 15.4451 17.1381C15.5331 17.1562 15.5595 17.2644 15.4979 17.3275C15.0492 17.7513 14.6621 18.1931 14.3541 18.6439ZM14.7237 19.5545C14.5741 19.5635 14.4245 19.5635 14.2749 19.5726C14.1694 19.5816 13.703 19.6086 13.2983 19.6357C13.2631 19.2119 13.2279 18.689 13.2015 18.4185C13.2015 18.3644 13.2719 18.3373 13.3071 18.3824L13.9582 19.2209C14.0902 19.3832 14.3277 19.3922 14.4685 19.2389C14.5037 19.1939 14.5741 19.2029 14.6005 19.257L14.7237 19.5545ZM11.4946 19.3832L10.2013 18.9594C10.0605 18.9144 9.9989 18.7521 10.0781 18.6168C10.5444 17.8053 11.1691 17.0209 12.0665 16.4709C12.3129 16.3177 12.6296 16.4799 12.656 16.7775C12.7088 17.5258 12.8144 18.4545 12.9288 19.3562C12.9464 19.5185 12.832 19.6627 12.6736 19.6807C12.6648 19.6807 12.656 19.6807 12.6472 19.6807C12.3129 19.7078 11.9698 19.7439 11.6354 19.7799C11.7234 19.6447 11.6618 19.4373 11.4946 19.3832ZM12.8936 14.9562L12.876 14.7578C13.096 15.0734 13.3599 15.398 13.6766 15.7045C13.7646 15.7857 13.835 15.8759 13.8966 15.975C13.5711 15.8127 13.3159 15.6234 13.1487 15.4701C12.9992 15.3439 12.9024 15.1545 12.8936 14.9562ZM15.0932 18.4996C15.3308 18.166 15.6123 17.8775 15.9378 17.607C16.061 17.5078 16.2458 17.4988 16.3778 17.589C16.7385 17.8414 17.064 18.1209 17.3192 18.4545C17.4688 18.6439 17.4864 18.9053 17.3808 19.1308L17.1872 19.5365C16.8617 19.5275 16.5361 19.5275 16.2194 19.5275C15.8763 19.5275 15.5243 19.5365 15.1812 19.5365L15.0228 19.1037C14.9348 18.9053 14.97 18.6799 15.0932 18.4996ZM18.9645 15.6324C18.8589 15.6775 18.7621 15.7136 18.6566 15.7496C18.6566 15.7496 18.6566 15.7406 18.6478 15.7406C18.6478 15.7406 18.6478 15.7406 18.639 15.7316C18.7973 15.5693 19.0525 15.2808 19.3252 14.848L19.29 15.1545C19.29 15.3709 19.1581 15.5513 18.9645 15.6324ZM11.785 8.59065C11.7762 8.6177 11.7586 8.63573 11.741 8.64475C11.7146 8.65376 11.6882 8.65376 11.6618 8.64475C11.565 8.59065 11.477 8.52753 11.3979 8.4554C11.3627 8.42835 11.3099 8.42835 11.2747 8.4554C11.2395 8.48245 11.2219 8.53655 11.2395 8.57262C11.3363 8.79802 11.477 9.22179 11.3979 9.57343C11.3803 9.64556 11.4242 9.71769 11.4946 9.73572C11.5034 9.73572 11.5034 9.73572 11.5122 9.73572C11.609 9.77179 11.6794 9.87097 11.6794 9.97917C11.6794 10.3669 11.6882 10.7636 11.7234 11.1423C11.7322 11.2054 11.7322 11.2595 11.741 11.3226C11.741 11.3316 11.7322 11.3406 11.7322 11.3406C11.7234 11.3406 11.7146 11.3406 11.7058 11.3316C11.521 11.1423 11.4155 10.6644 11.433 10.5111C11.4418 10.457 11.4242 10.412 11.3979 10.3669C10.7908 9.53737 10.8524 8.41934 11.0019 7.89639C11.0459 7.72508 11.1163 7.6259 11.1603 7.60787C11.1779 7.59885 11.1955 7.59885 11.2131 7.59885C11.3979 7.59885 11.5562 7.96852 11.565 7.96852C11.6266 8.13983 11.7498 8.48245 11.785 8.59065ZM3.09213 19.257C3.09213 13.8111 6.36515 8.88819 11.2835 6.88656C11.3275 6.86853 11.3803 6.89558 11.3891 6.94968C11.3979 7.02181 11.4155 7.11197 11.4242 7.1841C11.433 7.2382 11.3891 7.28328 11.3363 7.27426C11.2395 7.25623 11.1427 7.26525 11.0459 7.30131C10.8787 7.37344 10.7556 7.55377 10.6764 7.82426C10.5004 8.4554 10.474 9.5554 11.0019 10.421C11.0635 10.5111 11.0899 10.6283 11.0899 10.7365C11.0811 11.007 11.2571 11.3857 11.477 11.6111C11.5298 11.6652 11.5914 11.7103 11.653 11.7464C11.7586 11.8005 11.829 11.8996 11.8466 12.0078C11.9346 12.5759 12.0929 13.3152 12.4889 14.0906L12.5592 15.1185C12.5856 15.4431 12.4273 15.7496 12.1633 15.9209C11.6794 16.2275 11.2483 16.5611 10.8699 16.9398C9.63817 17.4447 5.70527 19.0857 5.15976 19.6537C4.89581 19.9242 4.86062 20.1947 4.9398 20.4832C4.89581 20.7447 4.60546 22.2143 4.11275 23.702C4.06876 23.8283 3.90159 23.8283 3.85759 23.702C3.35608 22.2955 3.09213 20.7988 3.09213 19.257ZM5.32693 26.7045C4.9574 26.1545 4.63186 25.5684 4.35031 24.9643C4.22713 24.7028 4.21833 24.4053 4.31511 24.1348C4.67585 23.0979 4.9486 22.016 5.10697 21.3127C5.13337 21.2045 5.26534 21.1865 5.31813 21.2766C5.5117 21.5922 5.72286 21.9348 5.84604 22.3406C5.86364 22.4037 5.95162 22.3857 5.95162 22.3225C5.93402 21.9619 5.86364 21.457 5.61728 21.0873C5.23015 20.5193 5.09817 20.2037 5.39732 19.8971C5.76685 19.5185 8.17763 18.4455 9.94611 17.6972C10.0517 17.6521 10.1397 17.7783 10.0781 17.8685C9.86693 18.184 9.68216 18.5267 9.53259 18.8873C9.47979 18.9865 9.53258 19.1037 9.63817 19.1398L10.9315 19.5635C11.0811 19.6176 11.0635 19.843 10.9051 19.8611C9.91972 19.9873 8.93429 20.1496 7.96646 20.3389C7.7465 20.384 7.54414 20.5012 7.40336 20.6725C7.22739 20.898 7.16581 21.1775 7.2186 21.457L7.99286 26.9569C7.7377 26.9569 7.49135 26.966 7.23619 26.966C6.79627 26.975 6.35635 26.984 5.90763 26.993C5.67007 27.011 5.45891 26.9028 5.32693 26.7045ZM8.3448 26.966L7.55294 21.3939C7.51774 21.2135 7.56174 21.0332 7.68491 20.898C7.7641 20.7988 7.88728 20.7357 8.01925 20.7086C10.7292 20.1676 13.4831 19.8881 16.2194 19.8881C18.9557 19.8881 21.7096 20.1586 24.4195 20.7086C24.5515 20.7357 24.6747 20.8078 24.7539 20.898C24.8683 21.0332 24.921 21.2135 24.8859 21.3939L24.006 26.966C21.4017 26.9299 18.7973 26.9028 16.193 26.9028C13.5799 26.9028 10.9579 26.9209 8.3448 26.966ZM24.6923 26.975C24.5163 26.975 24.3931 26.8127 24.4195 26.6414L25.229 21.466C25.2906 21.1684 25.2026 20.8709 25.0002 20.6365C24.8683 20.4832 24.6835 20.393 24.4811 20.348C23.5045 20.1496 22.5191 19.9963 21.5337 19.8701C21.3753 19.8521 21.2257 19.7799 21.1025 19.6807L20.9969 19.5906C20.8914 19.5004 20.909 19.3381 21.0321 19.275C21.0321 19.275 22.0704 18.8603 22.3079 18.5808C22.3871 18.4816 22.3431 18.2742 21.9824 17.7603C21.9648 17.7332 21.9384 17.6972 21.9208 17.6701C21.8416 17.5619 21.9648 17.4176 22.0792 17.4898C23.6981 18.4185 26.1264 19.7529 27.1998 20.0955C27.323 20.1316 27.367 20.2037 27.3934 20.2488C27.543 20.5914 27.1998 21.4119 26.8743 22.2053C26.6103 22.8365 26.32 23.5397 26.1704 24.207C26.1528 24.2971 26.2672 24.3422 26.3112 24.261C26.5664 23.7381 26.9799 22.8635 27.191 22.3496C27.235 22.2414 27.279 22.1422 27.323 22.034C27.3758 21.9078 27.5606 21.9258 27.587 22.0611L27.9653 23.9094C28.0269 24.216 28.0005 24.5406 27.8685 24.8201C27.5782 25.4602 27.2438 26.0733 26.8655 26.6504C26.7247 26.8758 26.4784 27.002 26.2144 26.993C25.8625 26.984 25.5193 26.984 25.1674 26.975C25.009 26.975 24.8507 26.975 24.6923 26.975Z" fill="#272A24"/>
<path d="M41.2399 19.0905C40.8264 19.2618 39.9553 19.4422 39.2514 19.4422C38.1516 19.4422 37.3158 19.1266 36.6823 18.4684C35.8552 17.6389 35.4153 16.1873 35.4417 14.4832C35.4857 10.8947 37.4829 9.40698 39.5242 9.40698C40.2545 9.40698 40.7912 9.55124 41.0991 9.70452L40.7736 11.3545C40.5008 11.2102 40.1313 11.1291 39.6738 11.1291C38.4068 11.1291 37.395 12.0307 37.395 14.5914C37.395 16.9627 38.2924 17.8192 39.1635 17.8192C39.3306 17.8192 39.4626 17.8012 39.533 17.7651V15.3938H38.6707V13.825H41.2487V19.0905H41.2399Z" fill="white"/>
<path d="M42.6477 9.49109H44.5218V17.723H46.9853V19.3459H42.6477V9.49109Z" fill="white"/>
<path d="M53.3553 14.2487C53.3553 17.9635 52.0707 19.4692 50.2407 19.4692C48.0674 19.4692 47.2052 17.1069 47.2052 14.402C47.2052 11.7061 48.2522 9.37991 50.3814 9.37991C52.6954 9.37089 53.3553 11.9856 53.3553 14.2487ZM49.1496 14.42C49.1496 16.6561 49.5544 17.8012 50.311 17.8012C51.1029 17.8012 51.4021 16.3315 51.4021 14.3389C51.4021 12.5987 51.1469 11.0389 50.3022 11.0389C49.5544 11.0389 49.1496 12.3012 49.1496 14.42Z" fill="white"/>
<path d="M58.3264 17.1009L57.9041 19.3549H56.0916L58.1769 9.49109H60.4205L62.2945 19.3459H60.4732L60.0597 17.0918H58.3264V17.1009ZM59.8925 15.6132L59.5758 13.5484C59.479 12.9534 59.3558 11.9616 59.2591 11.3124H59.2239C59.1183 11.9706 58.9775 12.9894 58.8807 13.5575L58.5288 15.6132H59.8925Z" fill="white"/>
<path d="M67.7143 19.1971C67.4416 19.3234 66.9225 19.4316 66.2714 19.4316C63.8166 19.4316 62.6376 17.3578 62.6376 14.5627C62.6376 10.848 64.6525 9.39636 66.5177 9.39636C67.1776 9.39636 67.6351 9.53161 67.8287 9.65784L67.5208 11.2718C67.3008 11.1636 67.0632 11.0734 66.6497 11.0734C65.5851 11.0734 64.6261 12.0201 64.6261 14.4545C64.6261 16.8078 65.4971 17.7275 66.6321 17.7275C66.9489 17.7275 67.3096 17.6553 67.5296 17.5832L67.7143 19.1971Z" fill="white"/>
<path d="M70.4948 17.1009L70.0725 19.3549H68.26L70.3452 9.49109H72.5888L74.4629 19.3459H72.6416L72.2281 17.0918H70.4948V17.1009ZM72.0609 15.6132L71.7442 13.5484C71.6474 12.9534 71.5242 11.9616 71.4274 11.3124H71.3922C71.2867 11.9706 71.1459 12.9894 71.0491 13.5575L70.6972 15.6132H72.0609Z" fill="white"/>
<path d="M75.5098 9.63221C75.9761 9.52402 76.6624 9.44287 77.4103 9.44287C78.6244 9.44287 79.4691 9.73139 80.085 10.3175C80.912 11.0748 81.3343 12.3822 81.3343 14.2937C81.3343 16.2953 80.8328 17.7018 79.997 18.4682C79.3371 19.1084 78.3957 19.4239 77.0583 19.4239C76.4688 19.4239 75.8793 19.3608 75.5098 19.3158V9.63221ZM77.3751 17.8281C77.4718 17.8551 77.6126 17.8551 77.7094 17.8551C78.6156 17.8551 79.3987 16.9535 79.3987 14.2305C79.3987 12.2019 78.8884 10.9756 77.7534 10.9756C77.6214 10.9756 77.4982 10.9847 77.3751 11.0207V17.8281Z" fill="white"/>
<path d="M86.5782 15.0181H84.3874V17.6869H86.8598V19.3459H82.5133V9.49109H86.6926V11.1501H84.3874V13.4132H86.5782V15.0181Z" fill="white"/>
<path d="M94.0217 15.9007C93.9689 14.954 93.9161 13.6917 93.9337 12.6278H93.8985C93.7226 13.6827 93.4674 14.8999 93.2915 15.6663L92.4556 19.1827H91.127L90.3264 15.7204C90.1416 14.9269 89.8865 13.7007 89.7369 12.6278H89.7017C89.6753 13.7007 89.6049 14.945 89.5609 15.9187L89.3937 19.3359H87.7924L88.4875 9.48108H90.4584L91.2238 13.0515C91.4878 14.3048 91.7341 15.3868 91.9013 16.5048H91.9365C92.0861 15.4138 92.2972 14.2958 92.5524 13.0515L93.3091 9.48108H95.2799L95.8606 19.3359H94.1889L94.0217 15.9007Z" fill="white"/>
<path d="M98.2537 19.3449V15.5761L96.1421 9.4901H98.1393L98.7904 11.8343C98.9752 12.4745 99.1511 13.2048 99.2919 13.9261H99.3183C99.4415 13.2138 99.5911 12.5016 99.767 11.7893L100.33 9.48108H102.266L100.119 15.495V19.3449H98.2537Z" fill="white"/>
</svg>
