<svg width="30" height="32" viewBox="0 0 30 32" fill="none" xmlns="http://www.w3.org/2000/svg">
<path d="M15.8687 20.2015C16.4223 20.1585 16.927 19.8761 17.2545 19.4257L22.2336 12.5424C22.3862 12.3313 22.3634 12.0399 22.1783 11.8548C21.9933 11.6703 21.7018 11.6474 21.4907 11.7995L14.6063 16.7801C14.1574 17.1066 13.8751 17.6113 13.832 18.1648C13.7889 18.7184 13.9894 19.2603 14.3813 19.6522C14.7381 20.0096 15.2194 20.2074 15.7198 20.2074C15.7693 20.2074 15.8187 20.2053 15.8687 20.2015ZM14.8924 18.2478C14.911 18.0048 15.0354 17.783 15.2311 17.6405L19.4306 14.6025L16.3936 18.8009C16.25 18.9981 16.0282 19.122 15.7852 19.1412C15.5433 19.1571 15.3056 19.0731 15.1327 18.9003C14.9615 18.7285 14.8732 18.4903 14.8924 18.2478Z" fill="#FFBB01"/>
<path d="M27.7805 10.4036C27.7752 10.3925 27.7752 10.3808 27.7693 10.3696C27.7629 10.359 27.7528 10.3531 27.7459 10.343C27.2083 9.42092 26.5723 8.56317 25.8501 7.78572L26.9924 6.644L27.7443 7.39593L30.0001 5.1396L27.7443 2.88382L25.488 5.1396L26.2405 5.89207L25.0982 7.03379C24.3208 6.31164 23.4635 5.6751 22.5409 5.13748C22.5308 5.13056 22.5249 5.12046 22.5143 5.11408C22.5031 5.1077 22.4914 5.10823 22.4803 5.10238C20.8355 4.15476 18.9876 3.52354 17.0173 3.29222V2.65887H17.815C18.5483 2.65887 19.1444 2.06275 19.1444 1.32944C19.1444 0.59612 18.5478 0 17.8145 0H13.0285C12.2952 0 11.699 0.59612 11.699 1.32944C11.699 2.06275 12.2952 2.65887 13.0285 2.65887H13.8261V3.27361C13.2518 3.33476 12.6786 3.42835 12.1117 3.55811C11.8256 3.62351 11.6464 3.90908 11.7123 4.19517C11.7777 4.48127 12.0633 4.66101 12.3494 4.59454C12.8386 4.48233 13.3327 4.39778 13.8277 4.34088L14.3983 4.29674C14.5728 4.28345 14.7334 4.27387 14.8897 4.26643V5.31775C14.8897 5.61182 15.1274 5.84952 15.4215 5.84952C15.7155 5.84952 15.9532 5.61182 15.9532 5.31775V4.27015C17.9533 4.36215 19.8379 4.89924 21.5135 5.78305L20.9892 6.69079C20.8424 6.94551 20.9296 7.27043 21.1838 7.4172C21.2673 7.46559 21.3588 7.48845 21.4492 7.48845C21.6332 7.48845 21.8118 7.39327 21.9102 7.22257L22.4329 6.31695C24.0969 7.37253 25.5103 8.78598 26.5659 10.4499L25.6603 10.9726C25.4066 11.1194 25.3194 11.4443 25.4667 11.699C25.5656 11.8697 25.7438 11.9649 25.9278 11.9649C26.0182 11.9649 26.1096 11.9421 26.1931 11.8937L27.1009 11.3693C27.9969 13.0689 28.5356 14.9844 28.6159 17.0163H27.5656C27.2716 17.0163 27.0339 17.254 27.0339 17.548C27.0339 17.8421 27.2716 18.0798 27.5656 18.0798H28.6159C28.5356 20.1117 27.9969 22.0272 27.1009 23.7267L26.1931 23.2024C25.9389 23.0556 25.6135 23.1418 25.4667 23.397C25.32 23.6518 25.4072 23.9767 25.6614 24.1234L26.567 24.6462C25.5114 26.3101 24.0979 27.7236 22.434 28.7791L21.9113 27.8735C21.764 27.6183 21.438 27.5316 21.1849 27.6789C20.9301 27.8257 20.8429 28.1511 20.9902 28.4053L21.5146 29.313C19.8389 30.1968 17.9543 30.7339 15.9543 30.8259V29.7794C15.9543 29.4853 15.7166 29.2476 15.4225 29.2476C15.1285 29.2476 14.8908 29.4853 14.8908 29.7794V30.8302C14.0415 30.8009 13.1896 30.6946 12.351 30.5021C12.0649 30.4335 11.7793 30.6153 11.7139 30.9014C11.648 31.1875 11.8272 31.4731 12.1133 31.5385C13.1747 31.7831 14.259 31.9065 15.3348 31.9065C15.3608 31.9065 15.3858 31.9049 15.4119 31.9044C15.4156 31.9044 15.4183 31.9065 15.4215 31.9065C15.4257 31.9065 15.4294 31.9038 15.4337 31.9038C17.99 31.8863 20.3883 31.196 22.4633 30.0038C22.4797 29.9964 22.4973 29.9926 22.5132 29.9831C22.5239 29.9767 22.5297 29.9666 22.5398 29.9597C24.6877 28.7079 26.4824 26.9153 27.7369 24.769C27.747 24.7547 27.7597 24.7435 27.7688 24.7275C27.7752 24.7164 27.7746 24.7047 27.78 24.6935C28.9945 22.5877 29.6928 20.149 29.6928 17.5486C29.6928 14.9482 28.9945 12.5095 27.7805 10.4036ZM27.7438 4.38767L28.4957 5.1396L27.7438 5.89207L26.9913 5.1396L27.7438 4.38767ZM14.8897 3.20182V1.59532H13.0285C12.8822 1.59532 12.7626 1.47568 12.7626 1.32944C12.7626 1.1832 12.8822 1.06355 13.0285 1.06355H17.8145C17.9607 1.06355 18.0804 1.1832 18.0804 1.32944C18.0804 1.47568 17.9607 1.59532 17.8145 1.59532H15.9532V3.20182C15.7682 3.19437 15.5916 3.19065 15.4215 3.19065C15.4066 3.19065 15.3896 3.19171 15.3747 3.19171C15.3614 3.19171 15.3481 3.19065 15.3348 3.19065C15.2476 3.19065 15.1604 3.1965 15.0732 3.19809C15.0115 3.19969 14.9535 3.19916 14.8897 3.20182Z" fill="#FFBB01"/>
<path d="M10.6356 7.44495H7.97668C7.6826 7.44495 7.44489 7.68266 7.44489 7.97675C7.44489 8.27083 7.6826 8.50854 7.97668 8.50854H10.6356C10.9297 8.50854 11.1674 8.27083 11.1674 7.97675C11.1674 7.68266 10.9297 7.44495 10.6356 7.44495Z" fill="#FFBB01"/>
<path d="M10.6355 11.1672H5.31778C5.02371 11.1672 4.78601 11.405 4.78601 11.699C4.78601 11.9931 5.02371 12.2308 5.31778 12.2308H10.6355C10.9295 12.2308 11.1672 11.9931 11.1672 11.699C11.1672 11.405 10.9295 11.1672 10.6355 11.1672Z" fill="#FFBB01"/>
<path d="M10.6355 14.8895H2.65879C2.36472 14.8895 2.12701 15.1272 2.12701 15.4213C2.12701 15.7154 2.36472 15.9531 2.65879 15.9531H10.6355C10.9295 15.9531 11.1672 15.7154 11.1672 15.4213C11.1672 15.1272 10.9295 14.8895 10.6355 14.8895Z" fill="#FFBB01"/>
<path d="M10.6355 18.6122H0.531715C0.237643 18.6122 -6.10352e-05 18.8499 -6.10352e-05 19.144C-6.10352e-05 19.4381 0.237643 19.6758 0.531715 19.6758H10.6355C10.9295 19.6758 11.1672 19.4381 11.1672 19.144C11.1672 18.8499 10.9295 18.6122 10.6355 18.6122Z" fill="#FFBB01"/>
<path d="M10.6353 22.3345H3.72227C3.42819 22.3345 3.19049 22.5722 3.19049 22.8663C3.19049 23.1604 3.42819 23.3981 3.72227 23.3981H10.6353C10.9294 23.3981 11.1671 23.1604 11.1671 22.8663C11.1671 22.5722 10.9294 22.3345 10.6353 22.3345Z" fill="#FFBB01"/>
<path d="M10.6355 26.0569H6.913C6.61893 26.0569 6.38123 26.2946 6.38123 26.5887C6.38123 26.8828 6.61893 27.1205 6.913 27.1205H10.6355C10.9295 27.1205 11.1672 26.8828 11.1672 26.5887C11.1672 26.2946 10.9295 26.0569 10.6355 26.0569Z" fill="#FFBB01"/>
</svg>
